<svg width="512" height="512" xmlns="http://www.w3.org/2000/svg">
  <!-- Background -->
  <rect width="512" height="512" fill="#5a8c2a" rx="85"/>

  <!-- Border effect -->
  <rect x="20" y="20" width="472" height="472" fill="none" stroke="#7cbd1e" stroke-width="10" rx="75"/>

  <!-- Pickaxe handle (brown) -->
  <rect x="230" y="240" width="52" height="186" fill="#654321"/>
  <rect x="220" y="230" width="10" height="10" fill="#8B6F47"/>
  <rect x="282" y="230" width="10" height="10" fill="#4a3018"/>

  <!-- Pickaxe head (iron/gray) -->
  <rect x="150" y="135" width="212" height="64" fill="#8b8b8b"/>
  <rect x="140" y="145" width="10" height="10" fill="#aaa"/>
  <rect x="362" y="145" width="10" height="10" fill="#666"/>
  <rect x="140" y="189" width="10" height="10" fill="#666"/>
  <rect x="362" y="189" width="10" height="10" fill="#aaa"/>

  <!-- Pickaxe points -->
  <polygon points="140,145 118,167 118,177 140,199" fill="#8b8b8b"/>
  <polygon points="372,145 394,167 394,177 372,199" fill="#8b8b8b"/>

  <!-- Highlights -->
  <rect x="160" y="145" width="20" height="10" fill="#aaa"/>
  <rect x="332" y="145" width="20" height="10" fill="#999"/>

  <!-- Shadow on handle -->
  <rect x="272" y="250" width="10" height="166" fill="#4a3018" opacity="0.3"/>

  <!-- Pixel details for authenticity -->
  <rect x="200" y="155" width="10" height="10" fill="#999"/>
  <rect x="302" y="155" width="10" height="10" fill="#777"/>
  <rect x="200" y="179" width="10" height="10" fill="#777"/>
  <rect x="302" y="179" width="10" height="10" fill="#999"/>
</svg>
